<svg width="27" height="36" viewBox="0 0 27 36" fill="none" xmlns="http://www.w3.org/2000/svg">
<path d="M0.0163574 29.0465L4.44714 0.692309C4.47355 0.522752 4.5526 0.36579 4.67311 0.243624C4.79362 0.121457 4.94949 0.0402701 5.11867 0.0115456C5.28785 -0.0171788 5.46178 0.00801324 5.61586 0.0835587C5.76993 0.159104 5.89636 0.281179 5.97726 0.432517L10.5594 8.97906L12.3861 5.50153C12.4556 5.36959 12.5597 5.25912 12.6873 5.18205C12.8149 5.10499 12.9612 5.06425 13.1103 5.06425C13.2594 5.06425 13.4056 5.10499 13.5333 5.18205C13.6609 5.25912 13.765 5.36959 13.8344 5.50153L26.2001 29.0465H0.0163574Z" fill="#FFA000"/>
<path d="M15.3236 18.0023L10.5574 8.97705L0.0163574 29.0465L15.3236 18.0023Z" fill="#F57C00"/>
<path d="M26.2001 29.0464L22.8065 8.04624C22.7813 7.89829 22.716 7.76011 22.6176 7.6468C22.5191 7.5335 22.3915 7.44944 22.2485 7.40383C22.1055 7.35821 21.9528 7.35279 21.8069 7.38817C21.6611 7.42354 21.5278 7.49834 21.4216 7.60439L0.0163574 29.0464L11.8604 35.6885C12.2262 35.8928 12.6382 36 13.0571 36C13.476 36 13.888 35.8928 14.2538 35.6885L26.2001 29.0464Z" fill="#FFCA28"/>
<path d="M22.8065 8.0463C22.7813 7.89835 22.716 7.76016 22.6176 7.64686C22.5192 7.53356 22.3915 7.4495 22.2485 7.40388C22.1055 7.35827 21.9528 7.35285 21.8069 7.38822C21.6611 7.4236 21.5278 7.4984 21.4216 7.60444L17.1749 11.8634L13.8324 5.49952C13.763 5.36757 13.6588 5.2571 13.5312 5.18004C13.4036 5.10297 13.2573 5.06224 13.1083 5.06224C12.9592 5.06224 12.8129 5.10297 12.6853 5.18004C12.5577 5.2571 12.4535 5.36757 12.3841 5.49952L10.5574 8.97705L5.97522 0.432546C5.89418 0.281178 5.76759 0.159136 5.61335 0.0836988C5.45912 0.00826182 5.28506 -0.0167473 5.11583 0.0122125C4.9466 0.0411724 4.79076 0.122634 4.67038 0.245063C4.55001 0.367491 4.4712 0.524684 4.4451 0.694384L0.0163648 29.0465H0L0.0143192 29.0629L0.130919 29.1201L17.1647 12.068L21.4155 7.8131C21.5216 7.70647 21.655 7.63117 21.8012 7.59546C21.9473 7.55975 22.1005 7.56501 22.2438 7.61068C22.3871 7.65634 22.5151 7.74064 22.6136 7.8543C22.7122 7.96796 22.7775 8.10659 22.8024 8.25495L26.1674 29.067L26.2001 29.0465L22.8065 8.0463ZM0.0552311 29.0076L4.44715 0.896899C4.47324 0.727199 4.55206 0.570006 4.67243 0.447578C4.7928 0.325149 4.94864 0.243688 5.11787 0.214728C5.28711 0.185768 5.46117 0.210777 5.6154 0.286214C5.76963 0.361651 5.89623 0.483693 5.97726 0.635061L10.5594 9.18161L12.3862 5.70408C12.4556 5.57213 12.5597 5.46166 12.6873 5.3846C12.815 5.30753 12.9612 5.2668 13.1103 5.2668C13.2594 5.2668 13.4056 5.30753 13.5333 5.3846C13.6609 5.46166 13.765 5.57213 13.8344 5.70408L17.1074 11.9289L0.0552311 29.0076Z" fill="white" fill-opacity="0.2"/>
<path opacity="0.2" d="M14.2538 35.4881C13.888 35.6923 13.476 35.7995 13.0571 35.7995C12.6382 35.7995 12.2262 35.6923 11.8604 35.4881L0.0449958 28.8603L0.0163574 29.0465L11.8604 35.6865C12.2262 35.8907 12.6382 35.998 13.0571 35.998C13.476 35.998 13.888 35.8907 14.2538 35.6865L26.2001 29.0465L26.1694 28.8583L14.2538 35.4881Z" fill="#A52714"/>
<path d="M22.8065 8.0463C22.7813 7.89835 22.716 7.76016 22.6176 7.64686C22.5191 7.53356 22.3915 7.4495 22.2485 7.40388C22.1055 7.35827 21.9528 7.35285 21.8069 7.38822C21.6611 7.4236 21.5278 7.4984 21.4216 7.60444L17.1749 11.8634L13.8324 5.49952C13.763 5.36757 13.6588 5.2571 13.5312 5.18004C13.4036 5.10297 13.2573 5.06224 13.1082 5.06224C12.9592 5.06224 12.8129 5.10297 12.6853 5.18004C12.5577 5.2571 12.4535 5.36757 12.3841 5.49952L10.5574 8.97705L5.97521 0.432546C5.89418 0.281178 5.76758 0.159136 5.61335 0.0836988C5.45911 0.00826182 5.28506 -0.0167473 5.11582 0.0122125C4.94659 0.0411724 4.79075 0.122634 4.67038 0.245063C4.55 0.367491 4.47119 0.524684 4.4451 0.694384L0.0163574 29.0465L11.8604 35.6865C12.2262 35.8908 12.6382 35.998 13.0571 35.998C13.476 35.998 13.888 35.8908 14.2538 35.6865L26.2001 29.0465L22.8065 8.0463Z" fill="url(#paint0_linear_68_18)"/>
<defs>
<linearGradient id="paint0_linear_68_18" x1="-0.967989" y1="6.6023" x2="26.3791" y2="33.9494" gradientUnits="userSpaceOnUse">
<stop stop-color="white" stop-opacity="0.1"/>
<stop offset="1" stop-color="white" stop-opacity="0"/>
</linearGradient>
</defs>
</svg>
